<?xml version="1.0" encoding="UTF-8" standalone="no"?>
<!-- Created with Inkscape (http://www.inkscape.org/) -->

<svg
   width="400"
   height="400"
   viewBox="0 0 105.83333 105.83333"
   version="1.1"
   id="svg1"
   sodipodi:docname="logo.svg"
   inkscape:export-filename="logo.png"
   inkscape:export-xdpi="96"
   inkscape:export-ydpi="96"
   inkscape:version="1.4.2 (ebf0e940d0, 2025-05-08)"
   xmlns:inkscape="http://www.inkscape.org/namespaces/inkscape"
   xmlns:sodipodi="http://sodipodi.sourceforge.net/DTD/sodipodi-0.dtd"
   xmlns:xlink="http://www.w3.org/1999/xlink"
   xmlns="http://www.w3.org/2000/svg"
   xmlns:svg="http://www.w3.org/2000/svg">
  <sodipodi:namedview
     id="namedview1"
     pagecolor="#ffffff"
     bordercolor="#000000"
     borderopacity="0.25"
     inkscape:showpageshadow="2"
     inkscape:pageopacity="0.0"
     inkscape:pagecheckerboard="0"
     inkscape:deskcolor="#d1d1d1"
     showgrid="false"
     inkscape:zoom="2.035"
     inkscape:cx="200"
     inkscape:cy="200"
     inkscape:window-width="1900"
     inkscape:window-height="1025"
     inkscape:window-x="0"
     inkscape:window-y="0"
     inkscape:window-maximized="1"
     inkscape:current-layer="svg1" />
  <defs
     id="defs1">
    <linearGradient
       id="linearGradient13">
      <stop
         style="stop-color:#2dd4be;stop-opacity:1;"
         offset="0"
         id="stop13" />
      <stop
         style="stop-color:#fef18b;stop-opacity:1;"
         offset="1"
         id="stop14" />
    </linearGradient>
    <linearGradient
       xlink:href="#linearGradient13"
       id="linearGradient14"
       x1="134.60561"
       y1="170.00729"
       x2="278.99588"
       y2="169.52759"
       gradientUnits="userSpaceOnUse" />
  </defs>
  <g
     id="layer1"
     style="display:inline">
    <path
       d="m 141.87502,257.50738 q -2.75,0 -4.5,-1.75 -1.75,-1.75 -1.75,-4.5 V 88.757384 q 0,-2.75 1.75,-4.5 1.75,-1.75 4.5,-1.75 h 26.5 q 4.25,0 6,2 2,1.75 2.5,2.75 l 61,96.249996 V 88.757384 q 0,-2.75 1.75,-4.5 1.75,-1.75 4.5,-1.75 h 30 q 2.75,0 4.5,1.75 1.75,1.75 1.75,4.5 V 251.25738 q 0,2.5 -1.75,4.5 -1.75,1.75 -4.5,1.75 h -26.75 q -4,0 -6,-2 -1.75,-2 -2.25,-2.75 l -61,-92.5 v 91 q 0,2.75 -1.75,4.5 -1.75,1.75 -4.5,1.75 z"
       id="text2"
       style="font-weight:bold;font-size:250px;font-family:Rubik;-inkscape-font-specification:'Rubik Bold';text-align:center;text-anchor:middle;white-space:pre;fill:url(#linearGradient14);fill-opacity:1"
       transform="matrix(0.55155777,0,0,0.55155777,-61.807349,-40.852174)"
       aria-label="N" />
  </g>
</svg>
